<svg viewBox="0 0 24 24" fill="none" xmlns="http://www.w3.org/2000/svg">
  <path d="M4 4H20C20.2652 4 20.5196 4.10536 20.7071 4.29289C20.8946 4.48043 21 4.73478 21 5V19C21 19.2652 20.8946 19.5196 20.7071 19.7071C20.5196 19.8946 20.2652 20 20 20H4C3.73478 20 3.48043 19.8946 3.29289 19.7071C3.10536 19.5196 3 19.2652 3 19V5C3 4.73478 3.10536 4.48043 3.29289 4.29289C3.48043 4.10536 3.73478 4 4 4Z" fill="#FF6B35" fill-opacity="0.1" stroke="#FF6B35" stroke-width="1.5" stroke-linecap="round" stroke-linejoin="round"/>
  <path d="M3 7L12 13L21 7" stroke="#FF6B35" stroke-width="1.5" stroke-linecap="round" stroke-linejoin="round"/>
</svg>
